<?xml version="1.0" standalone="no"?>
<!DOCTYPE svg PUBLIC "-//W3C//DTD SVG 20010904//EN"
 "http://www.w3.org/TR/2001/REC-SVG-20010904/DTD/svg10.dtd">
<svg version="1.0" xmlns="http://www.w3.org/2000/svg"
 width="1080.000000pt" height="1080.000000pt" viewBox="0 0 1080.000000 1080.000000"
 preserveAspectRatio="xMidYMid meet">

<g transform="translate(0.000000,1080.000000) scale(0.100000,-0.100000)"
fill="#000000" stroke="none">
<path d="M0 5400 l0 -5400 5400 0 5400 0 0 5400 0 5400 -5400 0 -5400 0 0
-5400z m5353 1710 c80 -38 142 -126 165 -235 45 -215 56 -356 34 -432 -21 -73
-91 -155 -186 -218 -53 -35 -88 -65 -91 -78 -25 -110 -25 -118 -9 -148 8 -17
45 -61 82 -98 66 -66 68 -67 145 -80 73 -13 90 -22 67 -36 -12 -7 1 -21 43
-48 46 -29 77 -60 77 -74 0 -11 -95 -113 -106 -113 -1 0 -9 6 -16 13 -64 61
-144 97 -216 97 -60 0 -145 -37 -189 -82 -49 -51 -73 -112 -73 -191 0 -154
110 -267 263 -267 78 0 118 13 178 56 26 19 51 34 56 34 5 0 31 -23 58 -51
l50 -51 -43 -38 c-23 -21 -73 -53 -110 -71 -64 -32 -73 -33 -182 -34 -74 0
-128 5 -150 14 -118 45 -176 89 -231 174 -47 73 -69 146 -69 232 0 87 22 159
70 234 38 59 141 151 170 151 12 1 11 4 -4 15 -13 10 -17 21 -12 39 5 22 -4
36 -58 91 -45 46 -71 65 -89 65 -14 0 -63 -23 -109 -51 -204 -127 -223 -135
-198 -89 22 42 3 41 -45 -2 -124 -110 -251 -178 -329 -178 -107 0 -82 50 196
386 32 39 58 74 58 77 0 4 -18 7 -40 7 -23 0 -40 5 -40 11 0 24 266 318 476
525 82 82 139 130 173 145 55 26 62 36 30 41 -14 2 -25 16 -34 41 -7 21 -20
46 -29 56 -27 30 -107 64 -165 70 -75 8 -80 30 -14 62 39 19 66 24 145 25 53
1 105 7 115 13 32 18 139 13 186 -9z m-1141 -1342 c1 -35 2 -228 0 -430 l-3
-368 -75 0 c-58 0 -74 3 -74 14 0 24 -13 25 -55 4 -59 -31 -193 -30 -256 0
-68 34 -127 97 -164 177 l-32 70 -8 -35 c-17 -79 -87 -165 -170 -208 -44 -24
-61 -27 -150 -27 -89 0 -106 3 -150 27 -27 14 -67 43 -89 65 -124 122 -121
328 6 449 71 67 127 89 233 89 74 0 99 -5 137 -24 93 -45 156 -119 185 -215 9
-28 9 -27 36 36 65 153 221 234 373 195 32 -9 67 -19 77 -22 15 -7 17 2 17 96
0 57 3 113 6 125 6 21 57 40 121 43 l31 1 4 -62z m-1508 21 c77 -28 186 -101
186 -126 0 -5 -25 -33 -55 -63 l-55 -54 -32 31 c-117 109 -285 109 -387 -2
-55 -60 -71 -103 -71 -194 0 -66 4 -83 30 -128 49 -85 134 -133 235 -133 71 0
155 31 189 69 29 32 49 26 102 -31 l48 -51 -41 -36 c-39 -36 -91 -65 -163 -92
-22 -9 -76 -14 -150 -14 -110 1 -118 2 -185 35 -86 42 -169 123 -210 205 -28
57 -30 67 -30 180 1 111 3 125 29 179 49 103 137 182 254 226 71 27 227 27
306 -1z m3469 10 c86 -13 130 -34 178 -86 110 -117 85 -291 -54 -380 l-38 -24
54 -102 c30 -56 69 -127 86 -159 17 -31 31 -61 31 -67 0 -8 -28 -11 -92 -9
l-92 3 -75 145 c-42 80 -80 151 -84 158 -5 8 -39 12 -97 12 l-89 0 -3 -157 -3
-158 -85 0 -85 0 -3 385 c-1 212 0 400 3 418 l6 32 185 0 c102 0 218 -5 257
-11z m841 -1 c130 -38 240 -142 288 -273 21 -57 25 -216 7 -262 -46 -114 -102
-187 -184 -237 -58 -37 -97 -51 -179 -65 -176 -32 -377 72 -455 234 -52 106
-61 183 -37 287 35 146 128 245 296 316 35 15 214 15 264 0z m506 -26 c10 -38
22 -99 40 -197 23 -122 59 -285 67 -299 6 -11 31 62 82 242 41 141 80 265 89
275 19 22 133 25 151 3 6 -7 38 -107 71 -222 33 -115 64 -223 70 -240 5 -17
10 -38 10 -47 0 -21 16 -22 24 -1 3 8 27 119 52 247 26 128 50 242 55 255 8
20 15 22 76 22 94 0 96 -2 78 -86 -9 -38 -20 -91 -26 -119 -12 -56 -16 -71
-54 -240 -41 -179 -61 -271 -75 -338 -4 -21 -12 -43 -17 -48 -6 -6 -48 -9 -94
-7 l-84 3 -80 277 c-48 170 -83 274 -88 269 -5 -5 -16 -34 -24 -63 -8 -29 -19
-68 -24 -85 -5 -18 -13 -48 -18 -65 -5 -18 -29 -102 -52 -185 l-44 -153 -91 0
c-87 0 -92 1 -97 23 -2 12 -21 96 -42 187 -21 91 -41 183 -45 205 -8 43 -14
68 -59 270 -16 71 -27 135 -24 142 4 9 29 13 84 13 l78 0 11 -38z m1389 14
c78 -26 161 -71 161 -87 0 -6 -15 -31 -32 -57 -18 -25 -36 -50 -40 -56 -3 -5
-44 10 -94 35 -83 41 -93 43 -174 44 -73 0 -89 -3 -117 -23 -59 -42 -54 -108
9 -137 18 -8 86 -24 151 -35 137 -24 184 -38 236 -74 57 -40 81 -91 81 -170 0
-115 -46 -182 -160 -235 -49 -22 -68 -25 -180 -25 -123 -1 -136 1 -230 41 -47
20 -129 75 -135 91 -4 12 6 27 65 94 l25 28 55 -39 c93 -66 201 -92 289 -71
65 15 101 51 101 100 0 68 -25 80 -257 124 -146 29 -203 61 -236 134 -57 130
6 267 149 321 77 30 241 28 333 -3z m-4203 -219 c56 -28 115 -88 137 -138 33
-78 37 -92 37 -143 0 -47 -3 -54 -22 -60 -13 -3 -114 -6 -225 -6 -187 0 -203
-1 -203 -17 1 -23 26 -54 67 -81 43 -30 153 -31 201 -2 l33 20 44 -35 c24 -20
46 -42 48 -50 7 -16 -15 -36 -73 -66 -39 -20 -60 -23 -155 -24 -100 0 -115 3
-160 27 -116 61 -178 161 -178 288 0 60 5 86 26 130 41 88 122 158 212 181 56
15 156 4 211 -24z m44 -787 c0 -5 -2 -10 -4 -10 -3 0 -8 5 -11 10 -3 6 -1 10
4 10 6 0 11 -4 11 -10z m1900 -80 c0 -53 -4 -90 -10 -90 -6 0 -10 37 -10 90 0
53 4 90 10 90 6 0 10 -37 10 -90z m220 86 c0 -11 -19 -15 -25 -6 -3 5 1 10 9
10 9 0 16 -2 16 -4z m-2874 -94 c37 -73 40 -82 23 -82 -10 0 -19 6 -19 14 0
36 -84 35 -122 -1 -32 -31 -36 -19 -10 29 10 18 24 49 32 68 17 45 30 62 44
57 6 -2 30 -40 52 -85z m1188 65 c8 -8 18 -27 22 -41 l6 -27 22 20 c29 27 103
29 122 4 25 -34 17 -43 -40 -43 -30 0 -58 -5 -61 -10 -12 -20 17 -40 57 -40
24 0 37 -4 33 -10 -17 -27 -110 -2 -119 33 -5 19 -6 19 -36 -7 -37 -31 -63
-39 -116 -34 l-39 3 -3 74 c-4 104 -4 105 73 99 37 -3 70 -12 79 -21z m393 13
c16 -6 37 -24 47 -41 17 -28 19 -29 35 -15 36 33 131 12 131 -28 0 -13 -11
-16 -53 -16 -61 0 -70 -5 -56 -31 7 -14 21 -19 50 -19 24 0 38 -4 34 -10 -13
-21 -74 -11 -106 18 l-31 28 -28 -28 c-23 -22 -38 -28 -73 -28 -75 0 -77 2
-77 90 0 53 4 80 13 83 22 9 83 7 114 -3z m2029 -40 c8 0 14 -4 14 -10 0 -5
-9 -10 -20 -10 -17 0 -20 -7 -20 -50 0 -27 -4 -50 -10 -50 -5 0 -10 20 -10 45
0 25 -3 45 -7 45 -5 0 -14 4 -21 9 -10 6 -8 14 10 34 23 26 23 26 37 7 7 -11
20 -20 27 -20z m-3416 -74 c0 -71 -1 -76 -29 -95 -34 -24 -49 -26 -75 -6 -17
13 -16 14 15 9 41 -5 75 16 65 42 -5 13 -9 15 -18 6 -33 -33 -108 2 -108 51 0
49 24 67 92 67 l58 0 0 -74z m164 58 c31 -31 20 -44 -37 -44 -61 0 -70 -5 -56
-31 7 -14 21 -19 50 -19 24 0 38 -4 34 -10 -12 -20 -73 -11 -104 16 -37 31
-37 37 -10 75 17 24 27 29 64 29 26 0 50 -6 59 -16z m177 -11 c12 -32 8 -99
-6 -96 -5 1 -12 24 -15 50 -5 47 -6 48 -40 48 -34 0 -35 -1 -45 -53 -6 -29
-14 -50 -18 -46 -8 8 -10 108 -3 115 3 3 30 6 61 7 52 2 56 1 66 -25z m159 17
c0 -5 -20 -10 -45 -10 -39 0 -47 -4 -57 -25 -16 -34 12 -65 59 -65 20 0 32 -4
28 -10 -21 -34 -115 11 -115 56 0 42 29 64 82 64 27 0 48 -4 48 -10z m60 -56
c0 -41 -4 -63 -10 -59 -5 3 -10 33 -10 66 0 33 4 59 10 59 6 0 10 -29 10 -66z
m188 5 l3 -57 -56 -7 c-51 -6 -60 -4 -81 16 -28 26 -31 55 -8 87 14 20 23 23
77 20 l62 -3 3 -56z m982 50 c0 -7 -11 -9 -29 -6 -17 4 -36 0 -47 -8 -17 -12
-15 -14 28 -25 59 -15 62 -15 67 7 12 59 151 56 151 -4 0 -9 -16 -13 -58 -13
-68 0 -79 -6 -55 -32 10 -11 30 -18 55 -18 24 0 37 -4 33 -10 -10 -16 -71 -12
-105 8 -29 16 -31 16 -41 0 -10 -18 -52 -24 -83 -12 -29 11 -17 20 23 16 21
-2 42 1 45 7 7 11 -43 41 -69 41 -18 0 -30 24 -21 45 7 18 106 22 106 4z m328
-1 c14 -14 16 -108 2 -108 -5 0 -10 17 -10 38 0 45 -14 62 -51 62 -30 0 -39
-15 -39 -66 0 -24 -5 -34 -15 -34 -19 0 -22 106 -2 113 24 10 103 7 115 -5z
m82 -45 c0 -7 8 -17 19 -22 16 -9 21 -4 36 29 10 21 24 41 31 44 19 7 17 -4
-6 -34 -11 -14 -20 -29 -20 -35 0 -5 -9 -20 -18 -33 -21 -27 -25 -24 -61 41
-28 50 -29 82 -1 47 11 -14 20 -30 20 -37z m242 40 c27 -24 24 -77 -7 -97 -55
-36 -125 -8 -125 52 0 21 7 40 18 48 24 19 92 17 114 -3z m150 -42 c22 -40 31
-39 48 5 8 20 22 40 32 45 23 13 22 0 -2 -31 -11 -14 -20 -29 -20 -35 -1 -19
-35 -55 -45 -47 -17 12 -64 109 -57 116 7 8 17 -5 44 -53z m148 -6 c0 -30 -4
-57 -10 -60 -6 -4 -10 18 -10 60 0 42 4 64 10 60 6 -3 10 -30 10 -60z m268 53
c14 -12 17 -104 3 -113 -6 -3 -11 17 -13 47 -3 50 -5 53 -31 56 -39 5 -57 -14
-57 -59 0 -22 -4 -39 -10 -39 -5 0 -10 15 -10 34 0 54 -8 66 -45 66 -37 0 -45
-12 -45 -71 0 -24 -4 -38 -10 -34 -5 3 -10 32 -10 64 l0 58 108 1 c59 0 113
-5 120 -10z m170 0 c7 -7 12 -20 12 -30 0 -15 -9 -18 -53 -18 -63 0 -73 -7
-50 -32 10 -12 30 -18 57 -18 30 0 37 -3 26 -10 -25 -16 -76 -11 -104 11 -30
24 -33 50 -8 84 13 20 26 24 63 25 25 0 50 -5 57 -12z m170 0 c15 -15 17 -122
2 -113 -5 3 -10 23 -10 44 0 44 -14 61 -51 61 -30 0 -39 -15 -39 -66 0 -24 -5
-34 -15 -34 -19 0 -22 106 -2 113 24 10 103 7 115 -5z m305 -17 c23 -39 22
-48 -9 -76 -36 -34 -83 -33 -118 1 -29 30 -31 36 -15 67 17 31 28 37 79 37 40
0 48 -4 63 -29z"/>
<path d="M5091 6062 c-28 -23 -33 -33 -28 -53 7 -26 95 -133 130 -158 23 -16
104 -31 124 -24 24 9 13 25 -73 113 -47 48 -88 100 -93 116 -10 38 -21 39 -60
6z"/>
<path d="M3148 5440 c-99 -53 -125 -192 -52 -279 79 -94 225 -76 283 36 6 12
11 49 11 83 0 77 -30 128 -93 159 -53 26 -101 26 -149 1z"/>
<path d="M3822 5439 c-96 -48 -127 -172 -65 -266 42 -63 148 -91 226 -58 64
27 67 34 67 165 0 134 -6 147 -79 168 -57 17 -101 15 -149 -9z"/>
<path d="M5907 5653 c-4 -3 -7 -56 -7 -116 l0 -109 139 4 c139 3 140 3 170 32
26 25 31 37 31 76 0 57 -29 93 -86 109 -42 12 -237 15 -247 4z"/>
<path d="M6805 5647 c-126 -46 -199 -170 -179 -304 19 -135 119 -223 254 -223
119 0 210 61 250 167 53 143 -15 300 -154 352 -61 23 -123 25 -171 8z"/>
<path d="M4484 5438 c-40 -31 -53 -49 -54 -75 0 -23 1 -23 140 -23 130 0 140
1 140 19 0 25 -35 68 -70 86 -45 23 -122 19 -156 -7z"/>
<path d="M3922 4720 c-21 -34 -15 -50 18 -50 33 0 36 7 18 45 -14 30 -19 31
-36 5z"/>
<path d="M5071 4751 c-7 -4 -15 -29 -18 -53 -8 -70 32 -97 96 -63 16 8 31 24
34 36 6 22 -6 63 -20 72 -18 11 -79 17 -92 8z"/>
<path d="M5253 4698 c2 -8 20 -13 42 -13 22 0 40 5 43 13 2 8 -10 12 -43 12
-33 0 -45 -4 -42 -12z"/>
<path d="M5492 4752 c-9 -6 -12 -28 -10 -68 3 -53 5 -59 26 -62 35 -5 82 18
93 45 8 23 -1 66 -18 76 -18 11 -79 17 -91 9z"/>
<path d="M5677 4704 c-13 -14 6 -24 44 -24 28 0 39 4 39 15 0 11 -11 15 -38
15 -21 0 -42 -3 -45 -6z"/>
<path d="M4072 4698 c-28 -28 2 -78 47 -78 40 0 60 34 45 74 -7 19 -74 22 -92
4z"/>
<path d="M4253 4698 c2 -8 20 -13 42 -13 22 0 40 5 43 13 2 8 -10 12 -43 12
-33 0 -45 -4 -42 -12z"/>
<path d="M4810 4689 c-17 -30 11 -69 50 -69 34 0 55 29 46 66 -5 20 -12 24
-46 24 -29 0 -42 -5 -50 -21z"/>
<path d="M5973 4698 c2 -8 20 -13 42 -13 22 0 40 5 43 13 2 8 -10 12 -43 12
-33 0 -45 -4 -42 -12z"/>
<path d="M6472 4698 c-29 -29 -1 -77 43 -77 42 0 64 33 49 73 -7 19 -74 22
-92 4z"/>
<path d="M7213 4698 c2 -8 20 -13 42 -13 22 0 40 5 43 13 2 8 -10 12 -43 12
-33 0 -45 -4 -42 -12z"/>
<path d="M7664 4685 c-13 -52 54 -86 89 -47 35 38 14 72 -45 72 -32 0 -39 -4
-44 -25z"/>
</g>
</svg>
