<svg width="24" height="24" viewBox="0 0 24 24" fill="none" xmlns="http://www.w3.org/2000/svg">
<g clip-path="url(#clip0_1_2675)">
<path d="M9.84081 3.33016C10.2052 2.88187 10.3874 2.65773 10.5657 2.51184C11.4001 1.82947 12.5996 1.82947 13.434 2.51184C13.6123 2.65773 13.7945 2.88187 14.1589 3.33016C14.3303 3.54111 14.4161 3.64658 14.5077 3.73634C14.9254 4.14558 15.4851 4.37744 16.0699 4.38342C16.1981 4.38473 16.3333 4.37077 16.6037 4.34284C17.1784 4.2835 17.4657 4.25383 17.695 4.2768C18.7674 4.38424 19.6157 5.23249 19.7231 6.30495C19.7461 6.53423 19.7164 6.82155 19.6571 7.39619C19.6291 7.66659 19.6152 7.8018 19.6165 7.93004C19.6225 8.51477 19.8543 9.07453 20.2636 9.49222C20.3533 9.58383 20.4588 9.66956 20.6697 9.84102C21.118 10.2054 21.3422 10.3876 21.4881 10.5659C22.1704 11.4003 22.1704 12.5999 21.4881 13.4342C21.3422 13.6125 21.118 13.7947 20.6697 14.1591C20.4588 14.3306 20.3533 14.4163 20.2636 14.5079C19.8543 14.9256 19.6225 15.4854 19.6165 16.0701C19.6152 16.1983 19.6291 16.3335 19.6571 16.6039C19.7164 17.1786 19.7461 17.4659 19.7231 17.6952C19.6157 18.7676 18.7674 19.6159 17.695 19.7233C17.4657 19.7463 17.1784 19.7166 16.6037 19.6573C16.3333 19.6294 16.1981 19.6154 16.0699 19.6167C15.4851 19.6227 14.9254 19.8545 14.5077 20.2638C14.4161 20.3535 14.3303 20.459 14.1589 20.67C13.7945 21.1183 13.6123 21.3424 13.434 21.4883C12.5996 22.1707 11.4001 22.1707 10.5657 21.4883C10.3874 21.3424 10.2052 21.1183 9.84081 20.67C9.66935 20.459 9.58362 20.3535 9.492 20.2638C9.07432 19.8545 8.51456 19.6227 7.92983 19.6167C7.80158 19.6154 7.66638 19.6294 7.39597 19.6573C6.82134 19.7166 6.53402 19.7463 6.30474 19.7233C5.23227 19.6159 4.38403 18.7676 4.27659 17.6952C4.25362 17.4659 4.28329 17.1786 4.34263 16.6039C4.37055 16.3335 4.38451 16.1983 4.3832 16.0701C4.37723 15.4854 4.14537 14.9256 3.73613 14.5079C3.64637 14.4163 3.5409 14.3306 3.32995 14.1591C2.88166 13.7947 2.65751 13.6125 2.51163 13.4342C1.82925 12.5999 1.82925 11.4003 2.51163 10.5659C2.65751 10.3876 2.88166 10.2054 3.32995 9.84102C3.5409 9.66956 3.64637 9.58383 3.73613 9.49222C4.14537 9.07453 4.37723 8.51477 4.3832 7.93005C4.38451 7.8018 4.37055 7.66659 4.34263 7.39619C4.28329 6.82155 4.25362 6.53423 4.27659 6.30495C4.38403 5.23249 5.23227 4.38425 6.30474 4.2768C6.53402 4.25383 6.82134 4.2835 7.39597 4.34284C7.66638 4.37077 7.80158 4.38473 7.92983 4.38342C8.51456 4.37744 9.07432 4.14558 9.492 3.73634C9.58362 3.64658 9.66935 3.54111 9.84081 3.33016Z" fill="#B25AF9"/>
<path d="M15 12L9 12" stroke="black" stroke-width="1.5" stroke-linecap="round" stroke-linejoin="round"/>
<path d="M12 15L12 9" stroke="black" stroke-width="1.5" stroke-linecap="round" stroke-linejoin="round"/>
</g>
<defs>
<clipPath id="clip0_1_2675">
<rect width="24" height="24" fill="white"/>
</clipPath>
</defs>
</svg>
