<svg width="24" height="24" viewBox="0 0 24 24" fill="none" xmlns="http://www.w3.org/2000/svg">
<g clip-path="url(#clip0_1_2388)">
<path d="M17.949 9.61616C20.6497 10.6155 22 11.1151 22 12C22 12.8848 20.6497 13.3845 17.949 14.3838L16.4429 14.9411C15.9036 15.1407 15.6339 15.2405 15.4372 15.4372C15.2405 15.6339 15.1407 15.9036 14.9411 16.4429L14.3838 17.949C13.3845 20.6497 12.8848 22 12 22C11.1151 22 10.6155 20.6497 9.61616 17.949L9.05883 16.4429C8.85926 15.9036 8.75948 15.6339 8.56277 15.4372C8.36606 15.2405 8.09641 15.1407 7.5571 14.9411L6.05093 14.3838C3.3503 13.3845 1.99998 12.8848 1.99998 12C1.99998 11.1151 3.3503 10.6155 6.05093 9.61616L7.5571 9.05883C8.09641 8.85926 8.36606 8.75948 8.56277 8.56277C8.75948 8.36606 8.85926 8.09641 9.05883 7.5571L9.61616 6.05093C10.6155 3.3503 11.1151 1.99998 12 1.99998C12.8848 1.99998 13.3845 3.3503 14.3838 6.05093L14.9411 7.5571C15.1407 8.09641 15.2405 8.36606 15.4372 8.56277C15.6339 8.75948 15.9036 8.85926 16.4429 9.05883L17.949 9.61616Z" fill="#B25AF9"/>
</g>
<defs>
<clipPath id="clip0_1_2388">
<rect width="24" height="24" fill="white"/>
</clipPath>
</defs>
</svg>
